# xmcd CD database file
#
# Track frame offsets:
#	150
#	15316
#	32373
#	48098
#	63233
#	80285
#	96009
#	109181
#	125426
#	138388
#	156240
#	170669
#	186223
#	196797
#	206667
#	221939
#	234315
#	250848
#	265399
#	283515
#
# Disc length: 4010 seconds
#
# Revision: 1
# Processed by: cddbd v1.5.2PL0 Copyright (c) Steve Scherf et al.
# Submitted via: CDex 1.70beta2
#
DISCID=120fa814
DTITLE=Various Artist - ORF Radiohits Vol2
DYEAR=2005
DGENRE=Oldies
TTITLE0=Tom Jones - Delilah
TTITLE1=Baccara - Yes Sir, I can Boogie
TTITLE2=The Rubettes - Sugar Baby Love
TTITLE3=Harpo - Moviestar
TTITLE4=Elton John - Candle in the Wind
TTITLE5=Albert Hammond - It never Rains in southern california
TTITLE6=The Beach Boys - Sloop John B
TTITLE7=Cat Stevens - Father and Son
TTITLE8=Hermans Hermits - No Milk Today
TTITLE9=Smokie - Mexican Girl
TTITLE10=Tony Christie - Amarillo
TTITLE11=Georg Baker Selection - Paloma Blanca
TTITLE12=Sandie Shaw - Puppet On A String
TTITLE13=Bill Haley and His Comets - Rock Around the Clock
TTITLE14=Terry Jacks - Seasons in the Sun
TTITLE15=The Monkees - I'm a Believer
TTITLE16=The Cats - One Way Wind
TTITLE17=Glen Campbell - Rhinestone Cowboy
TTITLE18=Lobo - I'd love you to want Me
TTITLE19=Petula Clark - Downtown
EXTD=YEAR: 2005
EXTT0=
EXTT1=
EXTT2=
EXTT3=
EXTT4=
EXTT5=
EXTT6=
EXTT7=
EXTT8=
EXTT9=
EXTT10=
EXTT11=
EXTT12=
EXTT13=
EXTT14=
EXTT15=
EXTT16=
EXTT17=
EXTT18=
EXTT19=
PLAYORDER=
